<svg xmlns="http://www.w3.org/2000/svg" width="1300" height="1300" fill="none" viewBox="0 0 1300 1300">
  <path fill="#fff" d="M0 0h1300v1300H0z"/>
  <g clip-path="url(#a)">
    <path fill="#fff" stroke="#00609C" stroke-miterlimit="10" d="M650 878.221c158.624 0 287.213-128.611 287.213-287.26S808.624 303.701 650 303.701c-158.624 0-287.213 128.611-287.213 287.26S491.376 878.221 650 878.221Z"/>
    <path fill="#000" d="M493.075 434.01 650 568.729 806.925 434.01 672.229 590.961l134.696 156.951L650 613.184 493.075 747.912l134.696-156.951L493.075 434.01Z"/>
    <path fill="#fff" d="m650.468 192.921 70.556 324.08-70.556 72.82v-396.9Z"/>
    <path fill="#00609C" d="m650.91 197.029 69.628 319.84-69.628 71.865V197.029Zm-.884-8.208v402.096l71.475-73.775-71.475-328.321Z"/>
    <path fill="#4C8FBA" d="m578.95 517.001 70.635-324.248v397.103l-70.635-72.855Z"/>
    <path fill="#00609C" d="M649.143 196.853v391.908l-69.716-71.901 69.716-320.007Zm.857-8.068-71.536 328.349L650 590.908h.026V188.82l-.026-.026v-.009Z"/>
    <path fill="#fff" d="M650.027 188.759v.062l-.027-.036.027-.026Z"/>
    <path fill="#00609C" d="m650.027 188.759-.027.026.027.036v-.062Z"/>
    <path fill="#fff" d="m251.944 590.502 324.868-71.371 72.11 71.371H251.944Z"/>
    <path fill="#00609C" d="m576.671 519.617 71.173 70.443H256.017l320.654-70.443Zm.282-.964-329.082 72.299h402.12l-73.047-72.299h.009Z"/>
    <path fill="#4C8FBA" d="M252.015 591.385h396.881l-73.586 69.86-323.295-69.86Z"/>
    <path fill="#00609C" d="m647.791 591.827-72.614 68.941-319.027-68.941h391.641Zm2.209-.884H247.88l327.562 70.788 74.532-70.752.026-.027v-.009Z"/>
    <path fill="#fff" d="m649.974 590.979-74.532 70.779-327.562-70.815 327.562 70.788 74.532-70.752Z"/>
    <path fill="#00609C" d="m247.88 590.943 327.562 70.815 74.532-70.779-74.532 70.752-327.562-70.788Z"/>
    <path fill="#fff" d="m577.439 663.41 72.093-71.38v397.033L577.439 663.41Z"/>
    <path fill="#00609C" d="M649.09 593.091v391.934l-71.165-321.474 71.165-70.46Zm.883-2.112-73.02 72.298 73.02 329.833V590.979Z"/>
    <path fill="#fff" d="m721.536 664.78-71.562-73.801.026-.036 1.423 1.423 70.113 72.414Z"/>
    <path fill="#00609C" d="m650 590.943-.026.036 71.562 73.801-70.113-72.414-1.423-1.423Z"/>
    <path fill="#4C8FBA" d="m650.416 592.066 70.634 72.855-70.634 324.248V592.066Z"/>
    <path fill="#00609C" d="m650.857 593.152 69.716 71.901-69.716 320.007V593.152Zm-.883-2.173V993.11l.026.027 71.536-328.349-71.562-73.809Z"/>
    <path fill="#fff" d="m650 993.137-.026.027v-.062l.026.035Z"/>
    <path fill="#00609C" d="M649.974 993.102v.062l.026-.027-.026-.035Z"/>
    <path fill="#fff" d="m651.731 592.057-.636-.637h396.965l-324.872 71.362-71.457-70.725Z"/>
    <path fill="#00609C" d="m1043.98 591.862-320.651 70.443-71.165-70.443h391.816Zm8.14-.883H650.026l1.396 1.396 71.625 70.902 329.083-72.298h-.01Z"/>
    <path fill="#4C8FBA" d="m651.104 590.537 72.084-71.406 324.872 71.406H651.104Z"/>
    <path fill="#00609C" d="m723.329 519.617 320.661 70.478H652.182l71.147-70.478Zm-.282-.964-73.021 72.326h402.094l-329.082-72.326h.009Z"/>
    <path fill="#F6731F" d="M658.914 154.385c-56.746 9.632-65.219-71.812-15.461-78.864 53.557-7.66 61.836 71 15.461 78.864Zm97.971-15.87c-25.489 18.645-59.053-12.273-41.224-39.604 3.393-5.151 11.052-10.913 17.219-12.07 32.071-5.903 49.626 32.888 24.005 51.674Zm-176.407-2.368c-27.529 26.306-68.611-16.002-40.136-42.582 27.591-25.837 67.189 16.612 40.136 42.582Zm-81.837-2.173c-30.304 16.479-45.085-37.634-11.318-40.62 21.292-1.9 32.945 28.814 11.318 40.62Zm306.517 1.838c-23.121-6.645-17.829-41.567 5.628-42.247 31.664-.945 26.505 51.472-5.628 42.247Z"/>
    <path fill="#00609C" d="M1104.46 906.833c-36.58 168.197-173.82 126.447-303.03 133.767-22.105 1.27-43.812 7.31-65.758 9.7 29.341 24.33 60.033 47.16 87.783 73.32 14.869 14.08 48.265 43.19 49.06 63.54.716 17.5-13.437 36.03-31.089 38.42-29.58 3.89-39.837-19.89-58.046-37.06-40.711-38.65-84.205-76.11-134.458-101.88-40.075 20.44-76.651 48.59-109.729 78.97-13.677 12.57-49.299 54.72-64.327 57.82-34.271 7-60.351-28.15-41.347-56.7 9.621-14.48 43.653-45.25 57.965-58.3 21.708-19.8 45.164-37.77 68.7-55.35-1.669-2.78-4.055-2.3-6.52-2.94-59.397-16.7-134.935-10.9-196.558-15.19-141.615-9.7-165.707-77.379-172.705-206.928-4.93-92.57-4.134-195.239 0-288.046.795-17.496-3.896-35.469 6.839-50.42 15.664-21.791 50.173-20.041 62.736 3.817 8.27 15.746 5.169 66.325 4.93 86.764-1.034 95.591-11.052 215.517 6.282 308.325 15.664 84.219 70.608 68.472 139.626 72.051 82.695 4.374 167.139 8.191 244.108 41.827 38.882-16.06 80.23-29.182 122.293-33.874 62.657-7.078 130.8 4.851 190.277-4.215 83.088-12.724 76.648-111.019 79.278-176.391 7.79-187.524-4.22-376.4.32-564.322 11.92-43.739 69.73-36.741 74.18 7.476 7.95 79.209-7.55 169.71 1.99 249.794-8.59 136.388 16.14 292.897-12.8 426.025Z"/>
  </g>
  <defs>
    <clipPath id="a">
      <path fill="#fff" d="M181 75h938v1151H181z"/>
    </clipPath>
  </defs>
</svg>
